# Blender v2.83.5 OBJ File: 'concert.blend'
# www.blender.org
o background.001
v -13.503267 0.000000 0.029638
v -13.503267 12.533257 0.029638
v -13.503267 0.000000 -0.029638
v -13.503267 12.533257 -0.029638
v 13.547153 0.000000 0.029638
v 13.547153 12.533257 0.029638
v 13.547153 0.000000 -0.029638
v 13.547153 12.533257 -0.029638
v -12.701925 12.423991 0.009187
v -12.689726 12.423991 0.009187
v -12.683625 12.423991 -0.001378
v -12.689726 12.423991 -0.011944
v -12.701925 12.423991 -0.011944
v -12.708026 12.423991 -0.001378
v -12.700139 12.857785 0.009187
v -12.691512 12.849158 0.009187
v -12.687199 12.844845 -0.001378
v -12.691512 12.849158 -0.011944
v -12.700139 12.857785 -0.011944
v -12.704453 12.862099 -0.001378
v 12.741400 12.857785 0.009187
v 12.732773 12.849158 0.009187
v 12.728459 12.844845 -0.001378
v 12.732773 12.849158 -0.011944
v 12.741400 12.857785 -0.011944
v 12.745713 12.862099 -0.001378
v 12.743186 12.423991 0.009187
v 12.730987 12.423991 0.009187
v 12.724886 12.423991 -0.001378
v 12.730987 12.423991 -0.011944
v 12.743186 12.423991 -0.011944
v 12.749287 12.423991 -0.001378
v -11.651831 13.099265 -0.007776
v -11.651293 12.855372 -0.007776
v -11.657473 13.099207 -0.004519
v -11.656935 12.855315 -0.004519
v -11.657473 13.099207 0.001995
v -11.656935 12.855315 0.001995
v -11.651831 13.099265 0.005251
v -11.651293 12.855372 0.005251
v -11.646191 13.099322 0.001995
v -11.645651 12.855431 0.001995
v -11.646191 13.099322 -0.004519
v -11.645651 12.855431 -0.004519
v -10.503583 13.099265 -0.007776
v -10.503045 12.855372 -0.007776
v -10.509225 13.099207 -0.004519
v -10.508687 12.855315 -0.004519
v -10.509225 13.099207 0.001995
v -10.508687 12.855315 0.001995
v -10.503583 13.099265 0.005251
v -10.503045 12.855372 0.005251
v -10.497943 13.099322 0.001995
v -10.497403 12.855431 0.001995
v -10.497943 13.099322 -0.004519
v -10.497403 12.855431 -0.004519
v -9.339152 13.099265 -0.007776
v -9.338614 12.855372 -0.007776
v -9.344794 13.099207 -0.004519
v -9.344256 12.855315 -0.004519
v -9.344794 13.099207 0.001995
v -9.344256 12.855315 0.001995
v -9.339152 13.099265 0.005251
v -9.338614 12.855372 0.005251
v -9.333512 13.099322 0.001995
v -9.332973 12.855431 0.001995
v -9.333512 13.099322 -0.004519
v -9.332973 12.855431 -0.004519
v -8.190905 13.099265 -0.007776
v -8.190367 12.855372 -0.007776
v -8.196547 13.099207 -0.004519
v -8.196009 12.855315 -0.004519
v -8.196547 13.099207 0.001995
v -8.196009 12.855315 0.001995
v -8.190905 13.099265 0.005251
v -8.190367 12.855372 0.005251
v -8.185265 13.099322 0.001995
v -8.184725 12.855431 0.001995
v -8.185265 13.099322 -0.004519
v -8.184725 12.855431 -0.004519
v -7.035682 13.099265 -0.007776
v -7.035144 12.855372 -0.007776
v -7.041324 13.099207 -0.004519
v -7.040786 12.855315 -0.004519
v -7.041324 13.099207 0.001995
v -7.040786 12.855315 0.001995
v -7.035682 13.099265 0.005251
v -7.035144 12.855372 0.005251
v -7.030042 13.099322 0.001995
v -7.029502 12.855431 0.001995
v -7.030042 13.099322 -0.004519
v -7.029502 12.855431 -0.004519
v -5.887434 13.099265 -0.007776
v -5.886897 12.855372 -0.007776
v -5.893076 13.099207 -0.004519
v -5.892539 12.855315 -0.004519
v -5.893076 13.099207 0.001995
v -5.892539 12.855315 0.001995
v -5.887434 13.099265 0.005251
v -5.886897 12.855372 0.005251
v -5.881794 13.099322 0.001995
v -5.881255 12.855431 0.001995
v -5.881794 13.099322 -0.004519
v -5.881255 12.855431 -0.004519
v -4.723004 13.099265 -0.007776
v -4.722466 12.855372 -0.007776
v -4.728646 13.099207 -0.004519
v -4.728108 12.855315 -0.004519
v -4.728646 13.099207 0.001995
v -4.728108 12.855315 0.001995
v -4.723004 13.099265 0.005251
v -4.722466 12.855372 0.005251
v -4.717364 13.099322 0.001995
v -4.716824 12.855431 0.001995
v -4.717364 13.099322 -0.004519
v -4.716824 12.855431 -0.004519
v -3.574756 13.099265 -0.007776
v -3.574218 12.855372 -0.007776
v -3.580398 13.099207 -0.004519
v -3.579860 12.855315 -0.004519
v -3.580398 13.099207 0.001995
v -3.579860 12.855315 0.001995
v -3.574756 13.099265 0.005251
v -3.574218 12.855372 0.005251
v -3.569116 13.099322 0.001995
v -3.568576 12.855431 0.001995
v -3.569116 13.099322 -0.004519
v -3.568576 12.855431 -0.004519
v -2.402971 13.099265 -0.007776
v -2.402433 12.855372 -0.007776
v -2.408613 13.099207 -0.004519
v -2.408075 12.855315 -0.004519
v -2.408613 13.099207 0.001995
v -2.408075 12.855315 0.001995
v -2.402971 13.099265 0.005251
v -2.402433 12.855372 0.005251
v -2.397331 13.099322 0.001995
v -2.396791 12.855431 0.001995
v -2.397331 13.099322 -0.004519
v -2.396791 12.855431 -0.004519
v -1.239500 13.099265 -0.007776
v -1.238962 12.855372 -0.007776
v -1.245142 13.099207 -0.004519
v -1.244604 12.855315 -0.004519
v -1.245142 13.099207 0.001995
v -1.244604 12.855315 0.001995
v -1.239500 13.099265 0.005251
v -1.238962 12.855372 0.005251
v -1.233860 13.099322 0.001995
v -1.233320 12.855431 0.001995
v -1.233860 13.099322 -0.004519
v -1.233320 12.855431 -0.004519
v -0.075070 13.099265 -0.007776
v -0.074532 12.855372 -0.007776
v -0.080712 13.099207 -0.004519
v -0.080174 12.855315 -0.004519
v -0.080712 13.099207 0.001995
v -0.080174 12.855315 0.001995
v -0.075070 13.099265 0.005251
v -0.074532 12.855372 0.005251
v -0.069430 13.099322 0.001995
v -0.068890 12.855431 0.001995
v -0.069430 13.099322 -0.004519
v -0.068890 12.855431 -0.004519
v 1.073178 13.099265 -0.007776
v 1.073716 12.855372 -0.007776
v 1.067536 13.099207 -0.004519
v 1.068074 12.855315 -0.004519
v 1.067536 13.099207 0.001995
v 1.068074 12.855315 0.001995
v 1.073178 13.099265 0.005251
v 1.073716 12.855372 0.005251
v 1.078818 13.099322 0.001995
v 1.079358 12.855431 0.001995
v 1.078818 13.099322 -0.004519
v 1.079358 12.855431 -0.004519
v 2.228400 13.099265 -0.007776
v 2.228938 12.855372 -0.007776
v 2.222759 13.099207 -0.004519
v 2.223296 12.855315 -0.004519
v 2.222759 13.099207 0.001995
v 2.223296 12.855315 0.001995
v 2.228400 13.099265 0.005251
v 2.228938 12.855372 0.005251
v 2.234040 13.099322 0.001995
v 2.234580 12.855431 0.001995
v 2.234040 13.099322 -0.004519
v 2.234580 12.855431 -0.004519
v 3.376648 13.099265 -0.007776
v 3.377186 12.855372 -0.007776
v 3.371006 13.099207 -0.004519
v 3.371544 12.855315 -0.004519
v 3.371006 13.099207 0.001995
v 3.371544 12.855315 0.001995
v 3.376648 13.099265 0.005251
v 3.377186 12.855372 0.005251
v 3.382288 13.099322 0.001995
v 3.382828 12.855431 0.001995
v 3.382288 13.099322 -0.004519
v 3.382828 12.855431 -0.004519
v 4.541079 13.099265 -0.007776
v 4.541617 12.855372 -0.007776
v 4.535437 13.099207 -0.004519
v 4.535975 12.855315 -0.004519
v 4.535437 13.099207 0.001995
v 4.535975 12.855315 0.001995
v 4.541079 13.099265 0.005251
v 4.541617 12.855372 0.005251
v 4.546719 13.099322 0.001995
v 4.547259 12.855431 0.001995
v 4.546719 13.099322 -0.004519
v 4.547259 12.855431 -0.004519
v 5.689327 13.099265 -0.007776
v 5.689865 12.855372 -0.007776
v 5.683685 13.099207 -0.004519
v 5.684223 12.855315 -0.004519
v 5.683685 13.099207 0.001995
v 5.684223 12.855315 0.001995
v 5.689327 13.099265 0.005251
v 5.689865 12.855372 0.005251
v 5.694967 13.099322 0.001995
v 5.695507 12.855431 0.001995
v 5.694967 13.099322 -0.004519
v 5.695507 12.855431 -0.004519
v 6.846543 13.099265 -0.007776
v 6.847081 12.855372 -0.007776
v 6.840901 13.099207 -0.004519
v 6.841439 12.855315 -0.004519
v 6.840901 13.099207 0.001995
v 6.841439 12.855315 0.001995
v 6.846543 13.099265 0.005251
v 6.847081 12.855372 0.005251
v 6.852183 13.099322 0.001995
v 6.852723 12.855431 0.001995
v 6.852183 13.099322 -0.004519
v 6.852723 12.855431 -0.004519
v 8.010973 13.099265 -0.007776
v 8.011511 12.855372 -0.007776
v 8.005331 13.099207 -0.004519
v 8.005869 12.855315 -0.004519
v 8.005331 13.099207 0.001995
v 8.005869 12.855315 0.001995
v 8.010973 13.099265 0.005251
v 8.011511 12.855372 0.005251
v 8.016613 13.099322 0.001995
v 8.017153 12.855431 0.001995
v 8.016613 13.099322 -0.004519
v 8.017153 12.855431 -0.004519
v 9.167676 13.099265 -0.007776
v 9.168214 12.855372 -0.007776
v 9.162034 13.099207 -0.004519
v 9.162572 12.855315 -0.004519
v 9.162034 13.099207 0.001995
v 9.162572 12.855315 0.001995
v 9.167676 13.099265 0.005251
v 9.168214 12.855372 0.005251
v 9.173316 13.099322 0.001995
v 9.173856 12.855431 0.001995
v 9.173316 13.099322 -0.004519
v 9.173856 12.855431 -0.004519
v 10.322932 13.099265 -0.007776
v 10.323470 12.855372 -0.007776
v 10.317290 13.099207 -0.004519
v 10.317828 12.855315 -0.004519
v 10.317290 13.099207 0.001995
v 10.317828 12.855315 0.001995
v 10.322932 13.099265 0.005251
v 10.323470 12.855372 0.005251
v 10.328572 13.099322 0.001995
v 10.329112 12.855431 0.001995
v 10.328572 13.099322 -0.004519
v 10.329112 12.855431 -0.004519
v 11.487363 13.099265 -0.007776
v 11.487901 12.855372 -0.007776
v 11.481721 13.099207 -0.004519
v 11.482259 12.855315 -0.004519
v 11.481721 13.099207 0.001995
v 11.482259 12.855315 0.001995
v 11.487363 13.099265 0.005251
v 11.487901 12.855372 0.005251
v 11.493003 13.099322 0.001995
v 11.493543 12.855431 0.001995
v 11.493003 13.099322 -0.004519
v 11.493543 12.855431 -0.004519
v 12.635612 13.099265 -0.007776
v 12.636150 12.855372 -0.007776
v 12.629971 13.099207 -0.004519
v 12.630508 12.855315 -0.004519
v 12.629971 13.099207 0.001995
v 12.630508 12.855315 0.001995
v 12.635612 13.099265 0.005251
v 12.636150 12.855372 0.005251
v 12.641253 13.099322 0.001995
v 12.641792 12.855431 0.001995
v 12.641253 13.099322 -0.004519
v 12.641792 12.855431 -0.004519
vt 0.375000 0.875000
vt 0.375000 0.875000
vt 0.375000 0.875000
vt 0.375000 0.875000
vt 0.375000 0.875000
vt 0.375000 0.875000
vt 0.375000 0.875000
vt 0.375000 0.875000
vt 0.875000 0.875000
vt 0.875000 0.875000
vt 0.875000 0.875000
vt 0.875000 0.875000
vt 0.875000 0.875000
vt 0.875000 0.875000
vt 0.875000 0.875000
vt 0.875000 0.875000
vt 0.875000 0.875000
vt 0.875000 0.875000
vt 0.875000 0.875000
vt 0.875000 0.875000
vt 0.875000 0.875000
vt 0.875000 0.875000
vt 0.875000 0.875000
vt 0.875000 0.875000
vt 0.875000 0.875000
vt 0.875000 0.875000
vt 0.875000 0.875000
vt 0.875000 0.875000
vt 0.875000 0.875000
vt 0.875000 0.875000
vt 0.875000 0.875000
vt 0.875000 0.875000
vt 0.875000 0.875000
vt 0.875000 0.875000
vt 0.875000 0.875000
vt 0.875000 0.875000
vt 0.875000 0.875000
vt 0.875000 0.875000
vt 0.875000 0.875000
vt 0.875000 0.875000
vt 0.875000 0.875000
vt 0.875000 0.875000
vt 0.875000 0.875000
vt 0.875000 0.875000
vt 0.875000 0.875000
vt 0.875000 0.875000
vt 0.875000 0.875000
vt 0.875000 0.875000
vt 0.875000 0.875000
vt 0.875000 0.875000
vt 0.875000 0.875000
vt 0.875000 0.875000
vt 0.875000 0.875000
vt 0.875000 0.875000
vt 0.875000 0.875000
vt 0.875000 0.875000
vt 0.875000 0.875000
vt 0.875000 0.875000
vt 0.875000 0.875000
vt 0.875000 0.875000
vt 0.875000 0.875000
vt 0.875000 0.875000
vt 0.875000 0.875000
vt 0.875000 0.875000
vt 0.875000 0.875000
vt 0.875000 0.875000
vt 0.875000 0.875000
vt 0.875000 0.875000
vt 0.875000 0.875000
vt 0.875000 0.875000
vt 0.875000 0.875000
vt 0.875000 0.875000
vt 0.875000 0.875000
vt 0.875000 0.875000
vt 0.875000 0.875000
vt 0.875000 0.875000
vt 0.875000 0.875000
vt 0.875000 0.875000
vt 0.875000 0.875000
vt 0.875000 0.875000
vt 0.875000 0.875000
vt 0.875000 0.875000
vt 0.875000 0.875000
vt 0.875000 0.875000
vt 0.875000 0.875000
vt 0.875000 0.875000
vt 0.875000 0.875000
vt 0.875000 0.875000
vt 0.875000 0.875000
vt 0.875000 0.875000
vt 0.875000 0.875000
vt 0.875000 0.875000
vt 0.875000 0.875000
vt 0.875000 0.875000
vt 0.875000 0.875000
vt 0.875000 0.875000
vt 0.875000 0.875000
vt 0.875000 0.875000
vt 0.875000 0.875000
vt 0.875000 0.875000
vt 0.875000 0.875000
vt 0.875000 0.875000
vt 0.875000 0.875000
vt 0.875000 0.875000
vt 0.875000 0.875000
vt 0.875000 0.875000
vt 0.875000 0.875000
vt 0.875000 0.875000
vt 0.875000 0.875000
vt 0.875000 0.875000
vt 0.875000 0.875000
vt 0.875000 0.875000
vt 0.875000 0.875000
vt 0.875000 0.875000
vt 0.875000 0.875000
vt 0.875000 0.875000
vt 0.875000 0.875000
vt 0.875000 0.875000
vt 0.875000 0.875000
vt 0.875000 0.875000
vt 0.875000 0.875000
vt 0.875000 0.875000
vt 0.875000 0.875000
vt 0.875000 0.875000
vt 0.875000 0.875000
vt 0.875000 0.875000
vt 0.875000 0.875000
vt 0.875000 0.875000
vt 0.875000 0.875000
vt 0.875000 0.875000
vt 0.875000 0.875000
vt 0.875000 0.875000
vt 0.875000 0.875000
vt 0.875000 0.875000
vt 0.875000 0.875000
vt 0.875000 0.875000
vt 0.875000 0.875000
vt 0.875000 0.875000
vt 0.875000 0.875000
vt 0.875000 0.875000
vt 0.875000 0.875000
vt 0.875000 0.875000
vt 0.875000 0.875000
vt 0.875000 0.875000
vt 0.875000 0.875000
vt 0.875000 0.875000
vt 0.875000 0.875000
vt 0.875000 0.875000
vt 0.875000 0.875000
vt 0.875000 0.875000
vt 0.875000 0.875000
vt 0.875000 0.875000
vt 0.875000 0.875000
vt 0.875000 0.875000
vt 0.875000 0.875000
vt 0.875000 0.875000
vt 0.875000 0.875000
vt 0.875000 0.875000
vt 0.875000 0.875000
vt 0.875000 0.875000
vt 0.875000 0.875000
vt 0.875000 0.875000
vt 0.875000 0.875000
vt 0.875000 0.875000
vt 0.875000 0.875000
vt 0.875000 0.875000
vt 0.875000 0.875000
vt 0.875000 0.875000
vt 0.875000 0.875000
vt 0.875000 0.875000
vt 0.875000 0.875000
vt 0.875000 0.875000
vt 0.875000 0.875000
vt 0.875000 0.875000
vt 0.875000 0.875000
vt 0.875000 0.875000
vt 0.875000 0.875000
vt 0.875000 0.875000
vt 0.875000 0.875000
vt 0.875000 0.875000
vt 0.875000 0.875000
vt 0.875000 0.875000
vt 0.875000 0.875000
vt 0.875000 0.875000
vt 0.875000 0.875000
vt 0.875000 0.875000
vt 0.875000 0.875000
vt 0.875000 0.875000
vt 0.875000 0.875000
vt 0.875000 0.875000
vt 0.875000 0.875000
vt 0.875000 0.875000
vt 0.875000 0.875000
vt 0.875000 0.875000
vt 0.875000 0.875000
vt 0.875000 0.875000
vt 0.875000 0.875000
vt 0.875000 0.875000
vt 0.875000 0.875000
vt 0.875000 0.875000
vt 0.875000 0.875000
vt 0.875000 0.875000
vt 0.875000 0.875000
vt 0.875000 0.875000
vt 0.875000 0.875000
vt 0.875000 0.875000
vt 0.875000 0.875000
vt 0.875000 0.875000
vt 0.875000 0.875000
vt 0.875000 0.875000
vt 0.875000 0.875000
vt 0.875000 0.875000
vt 0.875000 0.875000
vt 0.875000 0.875000
vt 0.875000 0.875000
vt 0.875000 0.875000
vt 0.875000 0.875000
vt 0.875000 0.875000
vt 0.875000 0.875000
vt 0.875000 0.875000
vt 0.875000 0.875000
vt 0.875000 0.875000
vt 0.875000 0.875000
vt 0.875000 0.875000
vt 0.875000 0.875000
vt 0.875000 0.875000
vt 0.875000 0.875000
vt 0.875000 0.875000
vt 0.875000 0.875000
vt 0.875000 0.875000
vt 0.875000 0.875000
vt 0.875000 0.875000
vt 0.875000 0.875000
vt 0.875000 0.875000
vt 0.875000 0.875000
vt 0.875000 0.875000
vt 0.875000 0.875000
vt 0.875000 0.875000
vt 0.875000 0.875000
vt 0.875000 0.875000
vt 0.875000 0.875000
vt 0.875000 0.875000
vt 0.875000 0.875000
vt 0.875000 0.875000
vt 0.875000 0.875000
vt 0.875000 0.875000
vt 0.875000 0.875000
vt 0.875000 0.875000
vt 0.875000 0.875000
vt 0.875000 0.875000
vt 0.875000 0.875000
vt 0.875000 0.875000
vt 0.875000 0.875000
vt 0.875000 0.875000
vt 0.875000 0.875000
vt 0.875000 0.875000
vt 0.875000 0.875000
vt 0.875000 0.875000
vt 0.875000 0.875000
vt 0.875000 0.875000
vt 0.875000 0.875000
vt 0.875000 0.875000
vt 0.875000 0.875000
vt 0.875000 0.875000
vt 0.875000 0.875000
vt 0.875000 0.875000
vt 0.875000 0.875000
vt 0.875000 0.875000
vt 0.875000 0.875000
vt 0.875000 0.875000
vt 0.875000 0.875000
vt 0.875000 0.875000
vt 0.875000 0.875000
vt 0.875000 0.875000
vt 0.875000 0.875000
vt 0.875000 0.875000
vt 0.875000 0.875000
vt 0.875000 0.875000
vt 0.875000 0.875000
vt 0.875000 0.875000
vt 0.875000 0.875000
vt 0.875000 0.875000
vt 0.875000 0.875000
vt 0.875000 0.875000
vt 0.875000 0.875000
vt 0.875000 0.875000
vt 0.875000 0.875000
vt 0.875000 0.875000
vt 0.875000 0.875000
vt 0.875000 0.875000
vt 0.875000 0.875000
vt 0.875000 0.875000
vt 0.875000 0.875000
vt 0.875000 0.875000
vt 0.875000 0.875000
vt 0.875000 0.875000
vn -1.0000 0.0000 0.0000
vn 0.0000 0.0000 -1.0000
vn 1.0000 0.0000 0.0000
vn 0.0000 0.0000 1.0000
vn 0.0000 -1.0000 0.0000
vn 0.0000 1.0000 0.0000
vn -0.5288 0.0032 0.8488
vn -0.4297 0.4468 0.7846
vn -0.6944 0.7196 0.0000
vn -1.0000 0.0061 0.0000
vn 0.5296 0.0033 0.8482
vn 0.1833 -0.1881 0.9649
vn 1.0000 0.0063 0.0000
vn 0.6988 -0.7153 0.0000
vn 0.5296 0.0033 -0.8482
vn 0.1833 -0.1881 -0.9649
vn -0.5288 0.0032 -0.8488
vn -0.4297 0.4468 -0.7846
vn 0.4297 0.4468 0.7846
vn 0.6944 0.7196 0.0000
vn -0.1833 -0.1881 0.9649
vn -0.6988 -0.7153 0.0000
vn -0.1833 -0.1881 -0.9649
vn 0.4297 0.4468 -0.7846
vn 0.5288 0.0032 0.8488
vn 1.0000 0.0061 0.0000
vn -0.5296 0.0033 0.8482
vn -1.0000 0.0063 0.0000
vn -0.5296 0.0033 -0.8482
vn 0.5288 0.0032 -0.8488
vn 0.0026 0.0000 -1.0000
vn -0.0025 0.0000 -1.0000
vn -0.8666 -0.0019 -0.4989
vn -0.8654 -0.0019 -0.5011
vn -0.8666 -0.0019 0.4990
vn -0.8653 -0.0019 0.5012
vn -0.0025 0.0000 1.0000
vn 0.0026 0.0000 1.0000
vn 0.8653 0.0019 0.5012
vn 0.8666 0.0019 0.4990
vn 0.8654 0.0019 -0.5011
vn 0.8666 0.0019 -0.4989
vn -0.0026 0.0000 1.0000
vn 0.8654 0.0019 0.5011
vn 0.8666 0.0019 0.4989
vn 0.0025 0.0000 1.0000
vn 0.8653 0.0019 -0.5012
vn 0.8666 0.0019 -0.4990
vn -0.0026 0.0000 -1.0000
vn 0.0025 0.0000 -1.0000
vn -0.8666 -0.0019 -0.4990
vn -0.8653 -0.0019 -0.5012
vn -0.8666 -0.0019 0.4989
vn -0.8654 -0.0019 0.5011
s off
f 1/1/1 2/2/1 4/3/1 3/4/1
f 3/4/2 4/3/2 8/5/2 7/6/2
f 7/6/3 8/5/3 6/7/3 5/8/3
f 5/8/4 6/7/4 2/2/4 1/1/4
f 3/4/5 7/6/5 5/8/5 1/1/5
f 8/5/6 4/3/6 2/2/6 6/7/6
s 1
f 9/9/7 15/10/8 20/11/9 14/12/10
f 10/13/11 16/14/12 15/10/8 9/9/7
f 11/15/13 17/16/14 16/14/12 10/13/11
f 12/17/15 18/18/16 17/16/14 11/15/13
f 13/19/17 19/20/18 18/18/16 12/17/15
f 14/12/10 20/11/9 19/20/18 13/19/17
f 15/10/8 21/21/19 26/22/20 20/11/9
f 16/14/12 22/23/21 21/21/19 15/10/8
f 17/16/14 23/24/22 22/23/21 16/14/12
f 18/18/16 24/25/23 23/24/22 17/16/14
f 19/20/18 25/26/24 24/25/23 18/18/16
f 20/11/9 26/22/20 25/26/24 19/20/18
f 21/21/19 27/27/25 32/28/26 26/22/20
f 22/23/21 28/29/27 27/27/25 21/21/19
f 23/24/22 29/30/28 28/29/27 22/23/21
f 24/25/23 30/31/29 29/30/28 23/24/22
f 25/26/24 31/32/30 30/31/29 24/25/23
f 26/22/20 32/28/26 31/32/30 25/26/24
f 33/33/31 34/34/32 36/35/33 35/36/34
f 35/36/34 36/35/33 38/37/35 37/38/36
f 37/38/36 38/37/35 40/39/37 39/40/38
f 39/40/38 40/39/37 42/41/39 41/42/40
f 41/42/40 42/41/39 44/43/41 43/44/42
f 43/44/42 44/43/41 34/34/32 33/33/31
f 45/45/31 46/46/32 48/47/33 47/48/34
f 47/48/34 48/47/33 50/49/35 49/50/36
f 49/50/36 50/49/35 52/51/37 51/52/38
f 51/52/38 52/51/37 54/53/39 53/54/40
f 53/54/40 54/53/39 56/55/41 55/56/42
f 55/56/42 56/55/41 46/46/32 45/45/31
f 57/57/31 58/58/32 60/59/33 59/60/34
f 59/60/34 60/59/33 62/61/35 61/62/36
f 61/62/36 62/61/35 64/63/37 63/64/38
f 63/64/38 64/63/37 66/65/39 65/66/40
f 65/66/40 66/65/39 68/67/41 67/68/42
f 67/68/42 68/67/41 58/58/32 57/57/31
f 69/69/31 70/70/32 72/71/33 71/72/34
f 71/72/34 72/71/33 74/73/35 73/74/36
f 73/74/36 74/73/35 76/75/37 75/76/38
f 75/76/38 76/75/37 78/77/39 77/78/40
f 77/78/40 78/77/39 80/79/41 79/80/42
f 79/80/42 80/79/41 70/70/32 69/69/31
f 81/81/31 82/82/32 84/83/33 83/84/34
f 83/84/34 84/83/33 86/85/35 85/86/36
f 85/86/36 86/85/35 88/87/37 87/88/38
f 87/88/38 88/87/37 90/89/39 89/90/40
f 89/90/40 90/89/39 92/91/41 91/92/42
f 91/92/42 92/91/41 82/82/32 81/81/31
f 93/93/31 94/94/32 96/95/33 95/96/34
f 95/96/34 96/95/33 98/97/35 97/98/36
f 97/98/36 98/97/35 100/99/37 99/100/38
f 99/100/38 100/99/37 102/101/39 101/102/40
f 101/102/40 102/101/39 104/103/41 103/104/42
f 103/104/42 104/103/41 94/94/32 93/93/31
f 105/105/31 106/106/32 108/107/33 107/108/34
f 107/108/34 108/107/33 110/109/35 109/110/36
f 109/110/36 110/109/35 112/111/37 111/112/38
f 111/112/38 112/111/37 114/113/39 113/114/40
f 113/114/40 114/113/39 116/115/41 115/116/42
f 115/116/42 116/115/41 106/106/32 105/105/31
f 117/117/31 118/118/32 120/119/33 119/120/34
f 119/120/34 120/119/33 122/121/35 121/122/36
f 121/122/36 122/121/35 124/123/37 123/124/38
f 123/124/38 124/123/37 126/125/39 125/126/40
f 125/126/40 126/125/39 128/127/41 127/128/42
f 127/128/42 128/127/41 118/118/32 117/117/31
f 129/129/31 130/130/32 132/131/33 131/132/34
f 131/132/34 132/131/33 134/133/35 133/134/36
f 133/134/36 134/133/35 136/135/37 135/136/38
f 135/136/38 136/135/37 138/137/39 137/138/40
f 137/138/40 138/137/39 140/139/41 139/140/42
f 139/140/42 140/139/41 130/130/32 129/129/31
f 141/141/31 142/142/32 144/143/33 143/144/34
f 143/144/34 144/143/33 146/145/35 145/146/36
f 145/146/36 146/145/35 148/147/37 147/148/38
f 147/148/38 148/147/37 150/149/39 149/150/40
f 149/150/40 150/149/39 152/151/41 151/152/42
f 151/152/42 152/151/41 142/142/32 141/141/31
f 153/153/43 155/154/44 156/155/45 154/156/46
f 155/154/44 157/157/47 158/158/48 156/155/45
f 157/157/47 159/159/49 160/160/50 158/158/48
f 159/159/49 161/161/51 162/162/52 160/160/50
f 161/161/51 163/163/53 164/164/54 162/162/52
f 163/163/53 153/153/43 154/156/46 164/164/54
f 165/165/31 166/166/32 168/167/33 167/168/34
f 167/168/34 168/167/33 170/169/35 169/170/36
f 169/170/36 170/169/35 172/171/37 171/172/38
f 171/172/38 172/171/37 174/173/39 173/174/40
f 173/174/40 174/173/39 176/175/41 175/176/42
f 175/176/42 176/175/41 166/166/32 165/165/31
f 177/177/31 178/178/32 180/179/33 179/180/34
f 179/180/34 180/179/33 182/181/35 181/182/36
f 181/182/36 182/181/35 184/183/37 183/184/38
f 183/184/38 184/183/37 186/185/39 185/186/40
f 185/186/40 186/185/39 188/187/41 187/188/42
f 187/188/42 188/187/41 178/178/32 177/177/31
f 189/189/31 190/190/32 192/191/33 191/192/34
f 191/192/34 192/191/33 194/193/35 193/194/36
f 193/194/36 194/193/35 196/195/37 195/196/38
f 195/196/38 196/195/37 198/197/39 197/198/40
f 197/198/40 198/197/39 200/199/41 199/200/42
f 199/200/42 200/199/41 190/190/32 189/189/31
f 201/201/31 202/202/32 204/203/33 203/204/34
f 203/204/34 204/203/33 206/205/35 205/206/36
f 205/206/36 206/205/35 208/207/37 207/208/38
f 207/208/38 208/207/37 210/209/39 209/210/40
f 209/210/40 210/209/39 212/211/41 211/212/42
f 211/212/42 212/211/41 202/202/32 201/201/31
f 213/213/31 214/214/32 216/215/33 215/216/34
f 215/216/34 216/215/33 218/217/35 217/218/36
f 217/218/36 218/217/35 220/219/37 219/220/38
f 219/220/38 220/219/37 222/221/39 221/222/40
f 221/222/40 222/221/39 224/223/41 223/224/42
f 223/224/42 224/223/41 214/214/32 213/213/31
f 225/225/31 226/226/32 228/227/33 227/228/34
f 227/228/34 228/227/33 230/229/35 229/230/36
f 229/230/36 230/229/35 232/231/37 231/232/38
f 231/232/38 232/231/37 234/233/39 233/234/40
f 233/234/40 234/233/39 236/235/41 235/236/42
f 235/236/42 236/235/41 226/226/32 225/225/31
f 237/237/31 238/238/32 240/239/33 239/240/34
f 239/240/34 240/239/33 242/241/35 241/242/36
f 241/242/36 242/241/35 244/243/37 243/244/38
f 243/244/38 244/243/37 246/245/39 245/246/40
f 245/246/40 246/245/39 248/247/41 247/248/42
f 247/248/42 248/247/41 238/238/32 237/237/31
f 249/249/31 250/250/32 252/251/33 251/252/34
f 251/252/34 252/251/33 254/253/35 253/254/36
f 253/254/36 254/253/35 256/255/37 255/256/38
f 255/256/38 256/255/37 258/257/39 257/258/40
f 257/258/40 258/257/39 260/259/41 259/260/42
f 259/260/42 260/259/41 250/250/32 249/249/31
f 261/261/31 262/262/32 264/263/33 263/264/34
f 263/264/34 264/263/33 266/265/35 265/266/36
f 265/266/36 266/265/35 268/267/37 267/268/38
f 267/268/38 268/267/37 270/269/39 269/270/40
f 269/270/40 270/269/39 272/271/41 271/272/42
f 271/272/42 272/271/41 262/262/32 261/261/31
f 273/273/31 274/274/32 276/275/33 275/276/34
f 275/276/34 276/275/33 278/277/35 277/278/36
f 277/278/36 278/277/35 280/279/37 279/280/38
f 279/280/38 280/279/37 282/281/39 281/282/40
f 281/282/40 282/281/39 284/283/41 283/284/42
f 283/284/42 284/283/41 274/274/32 273/273/31
f 285/285/31 286/286/32 288/287/33 287/288/34
f 287/288/34 288/287/33 290/289/35 289/290/36
f 289/290/36 290/289/35 292/291/37 291/292/38
f 291/292/38 292/291/37 294/293/39 293/294/40
f 293/294/40 294/293/39 296/295/41 295/296/42
f 295/296/42 296/295/41 286/286/32 285/285/31
