# Blender v2.83.5 OBJ File: 'concert.blend'
# www.blender.org
o stage.005
v 13.860880 1.616482 -8.499999
v 13.860880 1.749055 -8.499999
v -13.860881 0.000000 -8.499999
v -13.860881 2.000000 -8.499999
v -13.860881 1.616482 -8.499999
v -13.860881 1.749055 -8.499999
v 13.860880 0.000000 -8.499999
v 13.860880 2.000000 -8.499999
v -13.454119 0.000000 8.500001
v -13.860881 0.000000 8.093239
v -13.860881 2.000000 8.093239
v -13.454119 2.000000 8.500001
v 13.860880 0.000000 8.093239
v 13.454118 0.000000 8.500001
v 13.454118 2.000000 8.500001
v 13.860880 2.000000 8.093239
v -13.454119 1.616482 8.500001
v -13.454119 1.749055 8.500001
v -13.860881 1.749055 8.093239
v -13.860881 1.616482 8.093239
v 13.454118 1.749055 8.500001
v 13.454118 1.616482 8.500001
v 13.860880 1.616482 8.093239
v 13.860880 1.749055 8.093239
v -13.782771 1.749055 8.015129
v -13.782771 1.616482 8.015129
v -13.411846 1.616482 8.397945
v -13.411846 1.749055 8.397945
v 13.411845 1.749055 8.397945
v 13.411845 1.616482 8.397945
v 13.782770 1.616482 8.015129
v 13.782770 1.749055 8.015129
vt 0.375000 0.375000
vt 0.375000 0.375000
vt 0.375000 0.375000
vt 0.375000 0.375000
vt 0.375000 0.375000
vt 0.375000 0.375000
vt 0.375000 0.375000
vt 0.375000 0.375000
vt 0.375000 0.375000
vt 0.375000 0.375000
vt 0.375000 0.375000
vt 0.375000 0.375000
vt 0.375000 0.375000
vt 0.375000 0.375000
vt 0.375000 0.375000
vt 0.375000 0.375000
vt 0.875000 0.375000
vt 0.875000 0.375000
vt 0.875000 0.375000
vt 0.875000 0.375000
vt 0.875000 0.375000
vt 0.875000 0.375000
vt 0.875000 0.375000
vt 0.875000 0.375000
vt 0.875000 0.375000
vt 0.875000 0.375000
vt 0.875000 0.375000
vt 0.875000 0.375000
vt 0.875000 0.375000
vt 0.875000 0.375000
vt 0.875000 0.375000
vt 0.875000 0.375000
vt 0.875000 0.375000
vt 0.875000 0.375000
vt 0.875000 0.375000
vt 0.875000 0.375000
vt 0.875000 0.375000
vt 0.875000 0.375000
vt 0.875000 0.375000
vt 0.875000 0.375000
vn 0.0000 0.0000 1.0000
vn -0.7071 0.0000 0.7071
vn 0.0000 1.0000 0.0000
vn 0.7182 0.0000 0.6959
vn -0.7182 0.0000 0.6959
vn 0.0000 -1.0000 0.0000
vn 0.7071 0.0000 0.7071
vn 0.0000 0.0000 -1.0000
vn -1.0000 0.0000 0.0000
vn 1.0000 0.0000 0.0000
s off
f 30/1/1 29/2/1 28/3/1 27/4/1
f 23/5/2 24/6/2 32/7/2 31/8/2
f 17/9/3 22/10/3 30/1/3 27/4/3
f 22/10/3 23/5/3 31/8/3 30/1/3
f 29/2/4 30/1/4 31/8/4 32/7/4
f 27/4/5 28/3/5 25/11/5 26/12/5
f 21/13/6 18/14/6 28/3/6 29/2/6
f 20/15/3 17/9/3 27/4/3 26/12/3
f 24/6/6 21/13/6 29/2/6 32/7/6
f 18/14/6 19/16/6 25/11/6 28/3/6
f 19/16/7 20/15/7 26/12/7 25/11/7
f 6/17/8 4/18/8 8/19/8 2/20/8
f 15/21/7 21/22/7 24/23/7 16/24/7
f 8/19/3 4/18/3 11/25/3 12/26/3 15/21/3 16/24/3
f 19/27/9 11/25/9 4/18/9 6/17/9
f 2/20/10 8/19/10 16/24/10 24/23/10
f 18/28/2 12/26/2 11/25/2 19/27/2
f 22/29/7 14/30/7 13/31/7 23/32/7
f 3/33/6 7/34/6 13/31/6 14/30/6 9/35/6 10/36/6
f 9/35/2 17/37/2 20/38/2 10/36/2
f 21/22/1 15/21/1 12/26/1 18/28/1
f 7/34/10 1/39/10 23/32/10 13/31/10
f 1/39/10 2/20/10 24/23/10 23/32/10
f 10/36/9 20/38/9 5/40/9 3/33/9
f 20/38/9 19/27/9 6/17/9 5/40/9
f 3/33/8 5/40/8 1/39/8 7/34/8
f 5/40/8 6/17/8 2/20/8 1/39/8
f 14/30/1 22/29/1 17/37/1 9/35/1
