# Blender v2.83.5 OBJ File: 'concert.blend'
# www.blender.org
o stage.007
v 3.374848 1.038882 -2.902084
v 3.374848 1.171455 -2.902084
v -4.319844 0.000000 -2.902084
v -4.319844 1.038882 -2.902084
v -4.319844 1.171455 -2.902084
v 3.374848 0.000000 -2.902084
v -4.180943 0.000000 2.903054
v -4.319844 0.000000 2.764153
v 3.374848 0.000000 2.764153
v 3.235948 0.000000 2.903054
v -4.180943 1.038882 2.903054
v -4.180943 1.171455 2.903054
v -4.319844 1.171455 2.764153
v -4.319844 1.038882 2.764153
v 3.235948 1.171455 2.903054
v 3.235948 1.038882 2.903054
v 3.374848 1.038882 2.764153
v 3.374848 1.171455 2.764153
v -4.293171 1.171455 2.737480
v -4.293171 1.038882 2.737480
v -4.166507 1.038882 2.868204
v -4.166507 1.171455 2.868204
v 3.221513 1.171455 2.868204
v 3.221513 1.038882 2.868204
v 3.348176 1.038882 2.737480
v 3.348176 1.171455 2.737480
v 5.027041 0.065012 -0.893321
v 3.770022 1.423508 -0.893321
v 5.027041 0.065012 0.782697
v 3.770022 1.423508 0.782697
v 3.372922 0.065012 -0.893321
v 3.369447 1.422400 -0.893321
v 3.372922 0.065012 0.782697
v 3.372922 1.422400 0.782697
v 5.027041 0.374152 -0.893321
v 5.027041 0.374152 0.782697
v 3.372922 0.374152 0.782697
v 3.372922 0.374152 -0.893321
v 4.045004 1.101531 -0.819022
v 3.629302 1.101531 -0.819022
v 4.045004 1.101531 0.711164
v 3.629302 1.101531 0.711164
v 4.379230 0.820486 -0.819022
v 3.963527 0.820486 -0.819022
v 4.379230 0.820486 0.711164
v 3.963527 0.820486 0.711164
v 4.716644 0.533685 -0.819022
v 4.300941 0.533685 -0.819022
v 4.716644 0.533685 0.711164
v 4.300941 0.533685 0.711164
v 5.023355 0.277754 -0.819022
v 4.607652 0.277754 -0.819022
v 5.023355 0.277754 0.711164
v 4.607652 0.277754 0.711164
v 3.772502 1.339471 -0.819022
v 3.370339 1.339471 -0.819022
v 3.772502 1.339471 0.711164
v 3.370339 1.339471 0.711164
v 5.027041 0.065012 -0.804568
v 3.770022 1.423508 -0.804568
v 5.027041 0.065012 0.693944
v 3.770022 1.423508 0.693944
v 3.372922 0.065012 -0.804568
v 3.369447 1.422400 -0.804568
v 3.372922 0.065012 0.693944
v 3.372922 1.422400 0.693944
v 5.027041 0.374152 -0.804568
v 5.027041 0.374152 0.693944
v 3.372922 0.374152 0.693944
v 3.372922 0.374152 -0.804568
v 4.045004 1.190284 -0.819022
v 3.629302 1.190284 -0.819022
v 4.045004 1.190284 0.711164
v 3.629302 1.190284 0.711164
v 4.379230 0.909239 -0.819022
v 3.963527 0.909239 -0.819022
v 4.379230 0.909239 0.711164
v 3.963527 0.909239 0.711164
v 4.716644 0.622438 -0.819022
v 4.300941 0.622438 -0.819022
v 4.716644 0.622438 0.711164
v 4.300941 0.622438 0.711164
v 5.023355 0.366507 -0.819022
v 4.607652 0.366507 -0.819022
v 5.023355 0.366507 0.711164
v 4.607652 0.366507 0.711164
v 3.772502 1.428224 -0.819022
v 3.372925 1.422400 -0.819022
v 3.772502 1.428224 0.711164
v 3.372925 1.422400 0.711164
v 5.011227 0.387441 -0.872664
v 3.785836 1.417155 -0.872664
v 3.785836 1.417155 -0.825224
v 5.011227 0.387441 -0.825224
v 5.027041 0.353496 0.762041
v 5.027041 0.085668 0.762041
v 5.027041 0.085668 0.714601
v 5.027041 0.353496 0.714601
v 3.390104 1.422400 0.762041
v 3.749365 1.423508 0.762041
v 3.749365 1.423508 0.714601
v 3.390104 1.422400 0.714601
v 3.749365 1.423508 -0.872664
v 3.390104 1.423508 -0.872664
v 3.390104 1.423508 -0.825224
v 3.749365 1.423508 -0.825224
v 5.027041 0.085668 -0.872664
v 5.027041 0.353496 -0.872664
v 5.027041 0.353496 -0.825224
v 5.027041 0.085668 -0.825224
v 3.785836 1.410219 0.762041
v 5.011227 0.387441 0.762041
v 5.011227 0.387441 0.714601
v 3.785836 1.410219 0.714601
v 4.045004 1.128502 0.678250
v 4.045004 1.128502 -0.786108
v 4.045004 1.163313 -0.786108
v 4.045004 1.163313 0.678250
v 4.716644 0.560655 0.678250
v 4.716644 0.560655 -0.786108
v 4.716644 0.595467 -0.786108
v 4.716644 0.595467 0.678250
v 5.023355 0.304725 0.678250
v 5.023355 0.304725 -0.786108
v 5.023355 0.339537 -0.786108
v 5.023355 0.339537 0.678250
v 4.379230 0.847457 0.678250
v 4.379230 0.847457 -0.786108
v 4.379230 0.882269 -0.786108
v 4.379230 0.882269 0.678250
v 3.772502 1.366442 0.678250
v 3.772502 1.366442 -0.786108
v 3.772502 1.401254 -0.786108
v 3.772502 1.401254 0.678250
v -4.319844 1.422400 -2.902084
v 3.374848 1.422400 -2.902084
v -4.180943 1.422400 2.903054
v -4.319844 1.422400 2.764153
v 3.374848 1.422400 2.764153
v 3.235948 1.422400 2.903054
v -4.093705 1.422400 -2.677289
v -3.958579 1.422400 -2.542568
v 3.013583 1.422400 -2.542568
v 3.148709 1.422400 -2.677289
v -3.958579 1.422400 2.603777
v -4.093810 1.422400 2.662286
v -4.022758 1.422400 2.733761
v -3.946935 1.422400 2.615421
v 3.001940 1.422400 2.615421
v 3.077764 1.422400 2.733761
v 3.148814 1.422400 2.662286
v 3.013583 1.422400 2.603778
vt 0.875000 0.375000
vt 0.875000 0.375000
vt 0.875000 0.375000
vt 0.875000 0.375000
vt 0.875000 0.375000
vt 0.875000 0.375000
vt 0.875000 0.375000
vt 0.875000 0.375000
vt 0.875000 0.375000
vt 0.875000 0.375000
vt 0.875000 0.375000
vt 0.875000 0.375000
vt 0.875000 0.375000
vt 0.875000 0.375000
vt 0.875000 0.375000
vt 0.875000 0.375000
vt 0.875000 0.375000
vt 0.875000 0.375000
vt 0.875000 0.375000
vt 0.875000 0.375000
vt 0.875000 0.375000
vt 0.875000 0.375000
vt 0.875000 0.375000
vt 0.875000 0.375000
vt 0.875000 0.375000
vt 0.875000 0.375000
vt 0.875000 0.375000
vt 0.875000 0.375000
vt 0.875000 0.375000
vt 0.875000 0.375000
vt 0.875000 0.375000
vt 0.875000 0.375000
vt 0.875000 0.375000
vt 0.875000 0.375000
vt 0.875000 0.375000
vt 0.875000 0.375000
vt 0.875000 0.375000
vt 0.875000 0.375000
vt 0.875000 0.375000
vt 0.875000 0.375000
vt 0.875000 0.375000
vt 0.875000 0.375000
vt 0.875000 0.375000
vt 0.875000 0.375000
vt 0.875000 0.375000
vt 0.875000 0.375000
vt 0.875000 0.375000
vt 0.875000 0.375000
vt 0.875000 0.375000
vt 0.875000 0.375000
vt 0.875000 0.375000
vt 0.875000 0.375000
vt 0.875000 0.375000
vt 0.875000 0.375000
vt 0.875000 0.375000
vt 0.875000 0.375000
vt 0.875000 0.375000
vt 0.875000 0.375000
vt 0.875000 0.375000
vt 0.875000 0.375000
vt 0.875000 0.375000
vt 0.875000 0.375000
vt 0.875000 0.375000
vt 0.875000 0.375000
vt 0.875000 0.375000
vt 0.875000 0.375000
vt 0.875000 0.375000
vt 0.875000 0.375000
vt 0.875000 0.375000
vt 0.875000 0.375000
vt 0.875000 0.375000
vt 0.875000 0.375000
vt 0.875000 0.375000
vt 0.875000 0.375000
vt 0.875000 0.375000
vt 0.875000 0.375000
vt 0.875000 0.375000
vt 0.875000 0.375000
vt 0.875000 0.375000
vt 0.875000 0.375000
vt 0.875000 0.375000
vt 0.875000 0.375000
vt 0.875000 0.375000
vt 0.875000 0.375000
vt 0.875000 0.375000
vt 0.875000 0.375000
vt 0.875000 0.375000
vt 0.875000 0.375000
vt 0.875000 0.375000
vt 0.875000 0.375000
vt 0.875000 0.375000
vt 0.875000 0.375000
vt 0.875000 0.375000
vt 0.875000 0.375000
vt 0.875000 0.375000
vt 0.875000 0.375000
vt 0.875000 0.375000
vt 0.875000 0.375000
vt 0.875000 0.375000
vt 0.875000 0.375000
vt 0.875000 0.375000
vt 0.875000 0.375000
vt 0.875000 0.375000
vt 0.875000 0.375000
vt 0.875000 0.375000
vt 0.875000 0.375000
vt 0.875000 0.375000
vt 0.875000 0.375000
vt 0.875000 0.375000
vt 0.875000 0.375000
vt 0.875000 0.375000
vt 0.875000 0.375000
vt 0.875000 0.375000
vt 0.875000 0.375000
vt 0.875000 0.375000
vt 0.875000 0.375000
vt 0.875000 0.375000
vt 0.875000 0.375000
vt 0.875000 0.375000
vt 0.875000 0.375000
vt 0.875000 0.375000
vt 0.875000 0.375000
vt 0.875000 0.375000
vt 0.875000 0.375000
vt 0.875000 0.375000
vt 0.875000 0.375000
vt 0.875000 0.375000
vt 0.875000 0.375000
vt 0.875000 0.375000
vt 0.875000 0.375000
vt 0.875000 0.375000
vt 0.875000 0.375000
vt 0.875000 0.375000
vt 0.875000 0.375000
vt 0.875000 0.375000
vt 0.875000 0.375000
vt 0.875000 0.375000
vt 0.875000 0.375000
vt 0.875000 0.375000
vt 0.875000 0.375000
vt 0.875000 0.375000
vt 0.875000 0.375000
vt 0.875000 0.375000
vt 0.875000 0.375000
vt 0.875000 0.375000
vt 0.875000 0.375000
vt 0.875000 0.375000
vt 0.875000 0.375000
vt 0.875000 0.375000
vt 0.875000 0.375000
vt 0.875000 0.375000
vt 0.875000 0.375000
vt 0.375000 0.375000
vt 0.375000 0.375000
vt 0.375000 0.375000
vt 0.375000 0.375000
vt 0.375000 0.375000
vt 0.375000 0.375000
vt 0.375000 0.375000
vt 0.375000 0.375000
vt 0.375000 0.375000
vt 0.375000 0.375000
vt 0.375000 0.375000
vt 0.375000 0.375000
vt 0.375000 0.375000
vt 0.375000 0.375000
vt 0.375000 0.375000
vt 0.375000 0.375000
vt 0.375000 0.375000
vt 0.375000 0.375000
vt 0.375000 0.375000
vt 0.375000 0.375000
vt 0.375000 0.375000
vt 0.375000 0.375000
vt 0.375000 0.375000
vt 0.375000 0.375000
vt 0.375000 0.375000
vt 0.375000 0.375000
vt 0.375000 0.375000
vt 0.375000 0.375000
vt 0.375000 0.375000
vt 0.375000 0.375000
vt 0.375000 0.375000
vt 0.375000 0.375000
vt 0.375000 0.375000
vt 0.375000 0.375000
vt 0.375000 0.375000
vt 0.375000 0.375000
vt 0.375000 0.375000
vt 0.375000 0.375000
vt 0.375000 0.375000
vt 0.375000 0.375000
vt 0.375000 0.375000
vt 0.375000 0.375000
vt 0.375000 0.375000
vt 0.375000 0.375000
vt 0.375000 0.375000
vt 0.375000 0.375000
vt 0.375000 0.375000
vt 0.375000 0.375000
vt 0.375000 0.375000
vt 0.375000 0.375000
vt 0.375000 0.375000
vt 0.375000 0.375000
vt 0.375000 0.375000
vt 0.375000 0.375000
vt 0.375000 0.375000
vt 0.375000 0.375000
vt 0.375000 0.375000
vt 0.375000 0.375000
vt 0.375000 0.375000
vt 0.375000 0.375000
vt 0.375000 0.375000
vt 0.375000 0.375000
vt 0.375000 0.375000
vt 0.375000 0.375000
vn 0.0000 0.0000 1.0000
vn 0.0000 0.0000 -1.0000
vn 0.7071 0.0000 0.7071
vn 0.0000 1.0000 0.0000
vn -1.0000 0.0000 0.0000
vn 1.0000 0.0000 0.0000
vn -0.7071 0.0000 0.7071
vn 0.0000 -1.0000 0.0000
vn -0.0146 0.9999 0.0000
vn 0.6368 0.7604 -0.1277
vn 0.3728 0.9279 0.0000
vn 0.6368 0.7604 0.1277
vn 0.6433 0.7656 0.0000
vn -0.0029 1.0000 0.0002
vn -0.0029 1.0000 -0.0002
vn -0.0015 0.9996 -0.0268
vn -0.0536 0.9986 0.0000
vn -0.0015 0.9996 0.0268
vn 0.6408 0.7677 0.0000
vn 0.7182 0.0000 0.6959
vn -0.7182 0.0000 0.6959
vn -0.0031 1.0000 0.0000
s off
f 15/1/1 140/2/1 137/3/1 12/4/1
f 5/5/2 135/6/2 136/7/2 2/8/2
f 140/2/3 15/1/3 18/9/3 139/10/3
f 146/11/4 141/12/4 135/6/4 138/13/4
f 13/14/5 138/13/5 135/6/5 5/5/5
f 2/8/6 136/7/6 139/10/6 18/9/6
f 12/4/7 137/3/7 138/13/7 13/14/7
f 16/15/3 10/16/3 9/17/3 17/18/3
f 3/19/8 6/20/8 9/17/8 10/16/8 7/21/8 8/22/8
f 17/18/7 18/9/7 26/23/7 25/24/7
f 7/21/7 11/25/7 14/26/7 8/22/7
f 11/25/4 16/15/4 24/27/4 21/28/4
f 6/20/6 1/29/6 17/18/6 9/17/6
f 1/29/6 2/8/6 18/9/6 17/18/6
f 8/22/5 14/26/5 4/30/5 3/19/5
f 14/26/5 13/14/5 5/5/5 4/30/5
f 3/19/2 4/30/2 1/29/2 6/20/2
f 4/30/2 5/5/2 2/8/2 1/29/2
f 10/16/1 16/15/1 11/25/1 7/21/1
f 16/15/4 17/18/4 25/24/4 24/27/4
f 14/26/4 11/25/4 21/28/4 20/31/4
f 15/1/8 12/4/8 22/32/8 23/33/8
f 18/9/8 15/1/8 23/33/8 26/23/8
f 12/4/8 13/14/8 19/34/8 22/32/8
f 13/14/3 14/26/3 20/31/3 19/34/3
f 36/35/1 30/36/1 34/37/1 37/38/1
f 38/39/2 32/40/2 28/41/2 35/42/2
f 31/43/2 38/39/2 35/42/2 27/44/2
f 29/45/1 36/35/1 37/38/1 33/46/1
f 40/47/8 39/48/8 41/49/8 42/50/8
f 48/51/8 47/52/8 49/53/8 50/54/8
f 52/55/8 51/56/8 53/57/8 54/58/8
f 43/59/8 45/60/8 46/61/8 44/62/8
f 56/63/8 55/64/8 57/65/8 58/66/8
f 68/67/2 69/68/2 66/69/2 62/70/2
f 70/71/1 67/72/1 60/73/1 64/74/1
f 63/75/1 59/76/1 67/72/1 70/71/1
f 61/77/2 65/78/2 69/68/2 68/67/2
f 72/79/4 74/80/4 73/81/4 71/82/4
f 80/83/4 82/84/4 81/85/4 79/86/4
f 84/87/4 86/88/4 85/89/4 83/90/4
f 76/91/4 78/92/4 77/93/4 75/94/4
f 88/95/9 90/96/9 89/97/9 87/98/9
f 29/45/8 33/46/8 65/78/8 61/77/8
f 33/46/5 37/38/5 69/68/5 65/78/5
f 38/39/5 31/43/5 63/75/5 70/71/5
f 31/43/8 27/44/8 59/76/8 63/75/8
f 40/47/5 42/50/5 74/80/5 72/79/5
f 48/51/5 50/54/5 82/84/5 80/83/5
f 52/55/5 54/58/5 86/88/5 84/87/5
f 44/62/5 46/61/5 78/92/5 76/91/5
f 35/42/10 28/41/10 92/99/10 91/100/10
f 28/41/11 60/73/11 93/101/11 92/99/11
f 60/73/12 67/72/12 94/102/12 93/101/12
f 67/72/13 35/42/13 91/100/13 94/102/13
f 36/35/6 29/45/6 96/103/6 95/104/6
f 29/45/6 61/77/6 97/105/6 96/103/6
f 61/77/6 68/67/6 98/106/6 97/105/6
f 68/67/6 36/35/6 95/104/6 98/106/6
f 34/37/14 30/36/14 100/107/14 99/108/14
f 30/36/4 62/70/4 101/109/4 100/107/4
f 62/70/15 66/69/15 102/110/15 101/109/15
f 66/69/4 34/37/4 99/108/4 102/110/4
f 28/41/16 32/40/16 104/111/16 103/112/16
f 32/40/17 64/74/17 105/113/17 104/111/17
f 64/74/18 60/73/18 106/114/18 105/113/18
f 60/73/4 28/41/4 103/112/4 106/114/4
f 27/44/6 35/42/6 108/115/6 107/116/6
f 35/42/6 67/72/6 109/117/6 108/115/6
f 67/72/6 59/76/6 110/118/6 109/117/6
f 59/76/6 27/44/6 107/116/6 110/118/6
f 30/36/19 36/35/19 112/119/19 111/120/19
f 36/35/13 68/67/13 113/121/13 112/119/13
f 68/67/19 62/70/19 114/122/19 113/121/19
f 62/70/13 30/36/13 111/120/13 114/122/13
f 41/49/6 39/48/6 116/123/6 115/124/6
f 39/48/6 71/82/6 117/125/6 116/123/6
f 71/82/6 73/81/6 118/126/6 117/125/6
f 73/81/6 41/49/6 115/124/6 118/126/6
f 49/53/6 47/52/6 120/127/6 119/128/6
f 47/52/6 79/86/6 121/129/6 120/127/6
f 79/86/6 81/85/6 122/130/6 121/129/6
f 81/85/6 49/53/6 119/128/6 122/130/6
f 53/57/6 51/56/6 124/131/6 123/132/6
f 51/56/6 83/90/6 125/133/6 124/131/6
f 83/90/6 85/89/6 126/134/6 125/133/6
f 85/89/6 53/57/6 123/132/6 126/134/6
f 45/60/6 43/59/6 128/135/6 127/136/6
f 43/59/6 75/94/6 129/137/6 128/135/6
f 75/94/6 77/93/6 130/138/6 129/137/6
f 77/93/6 45/60/6 127/136/6 130/138/6
f 57/65/6 55/64/6 132/139/6 131/140/6
f 55/64/6 87/98/6 133/141/6 132/139/6
f 87/98/6 89/97/6 134/142/6 133/141/6
f 89/97/6 57/65/6 131/140/6 134/142/6
f 143/143/4 142/144/4 145/145/4 148/146/4 149/147/4 152/148/4
f 150/149/4 147/150/4 137/3/4 140/2/4
f 144/151/4 151/152/4 139/10/4 136/7/4
f 151/152/4 150/149/4 140/2/4 139/10/4
f 147/150/4 146/11/4 138/13/4 137/3/4
f 141/12/4 144/151/4 136/7/4 135/6/4
f 23/153/20 24/154/20 25/155/20 26/156/20
f 21/157/21 22/158/21 19/159/21 20/160/21
f 24/154/1 23/153/1 22/158/1 21/157/1
f 91/161/13 92/162/13 93/163/13 94/164/13
f 95/165/6 96/166/6 97/167/6 98/168/6
f 99/169/22 100/170/22 101/171/22 102/172/22
f 103/173/4 104/174/4 105/175/4 106/176/4
f 107/177/6 108/178/6 109/179/6 110/180/6
f 111/181/19 112/182/19 113/183/19 114/184/19
f 115/185/6 116/186/6 117/187/6 118/188/6
f 119/189/6 120/190/6 121/191/6 122/192/6
f 123/193/6 124/194/6 125/195/6 126/196/6
f 127/197/6 128/198/6 129/199/6 130/200/6
f 131/201/6 132/202/6 133/203/6 134/204/6
f 142/205/4 143/206/4 144/207/4 141/208/4
f 148/209/4 145/210/4 146/211/4 147/212/4
f 152/213/4 149/214/4 150/215/4 151/216/4
f 145/210/4 142/205/4 141/208/4 146/211/4
f 149/214/4 148/209/4 147/212/4 150/215/4
f 151/216/4 144/207/4 143/206/4 152/213/4
