# Blender v2.83.5 OBJ File: 'concert.blend'
# www.blender.org
o stairs.001
v -1.339252 0.000000 1.228493
v 0.501951 2.000000 1.228493
v -1.339252 0.000000 -1.226434
v 0.501951 2.000000 -1.226434
v 1.077557 0.000000 1.228493
v 1.077557 2.000000 1.228493
v 1.077557 0.000000 -1.226434
v 1.077557 2.000000 -1.226434
v -1.339252 0.452810 1.228493
v -1.339252 0.452810 -1.226434
v 1.077557 0.452810 -1.226434
v 1.077557 0.452810 1.228493
v 0.099174 1.518229 1.119665
v 0.708070 1.518229 1.119665
v 0.099174 1.518229 -1.121656
v 0.708070 1.518229 -1.121656
v -0.390378 1.106572 1.119665
v 0.218517 1.106572 1.119665
v -0.390378 1.106572 -1.121656
v 0.218517 1.106572 -1.121656
v -0.884602 0.686482 1.119665
v -0.275707 0.686482 1.119665
v -0.884602 0.686482 -1.121656
v -0.275707 0.686482 -1.121656
v -1.333853 0.311612 1.119665
v -0.724957 0.311612 1.119665
v -1.333853 0.311612 -1.121656
v -0.724957 0.311612 -1.121656
v 0.498318 1.866748 1.119665
v 1.076251 1.866748 1.119665
v 0.498318 1.866748 -1.121656
v 1.076251 1.866748 -1.121656
v -1.339252 0.000000 1.098493
v 0.501951 2.000000 1.098493
v -1.339252 0.000000 -1.096434
v 0.501951 2.000000 -1.096434
v 1.077557 0.000000 1.098493
v 1.077557 2.000000 1.098493
v 1.077557 0.000000 -1.096434
v 1.077557 2.000000 -1.096434
v -1.339252 0.452810 1.098493
v -1.339252 0.452810 -1.096434
v 1.077557 0.452810 -1.096434
v 1.077557 0.452810 1.098493
v 0.099174 1.648229 1.119665
v 0.708070 1.648229 1.119665
v 0.099174 1.648229 -1.121656
v 0.708070 1.648229 -1.121656
v -0.390378 1.236572 1.119665
v 0.218517 1.236572 1.119665
v -0.390378 1.236572 -1.121656
v 0.218517 1.236572 -1.121656
v -0.884602 0.816482 1.119665
v -0.275707 0.816482 1.119665
v -0.884602 0.816482 -1.121656
v -0.275707 0.816482 -1.121656
v -1.333853 0.441612 1.119665
v -0.724957 0.441612 1.119665
v -1.333853 0.441612 -1.121656
v -0.724957 0.441612 -1.121656
v 0.498318 1.996748 1.119665
v 1.076251 1.996748 1.119665
v 0.498318 1.996748 -1.121656
v 1.076251 1.996748 -1.121656
v -1.316088 0.472275 1.198236
v 0.478787 1.980535 1.198236
v 0.478787 1.980535 1.128749
v -1.316088 0.472275 1.128749
v -1.339252 0.422553 -1.196177
v -1.339252 0.030256 -1.196177
v -1.339252 0.030256 -1.126690
v -1.339252 0.422553 -1.126690
v 1.047301 2.000000 -1.196177
v 0.532208 2.000000 -1.196177
v 0.532208 2.000000 -1.126690
v 1.047301 2.000000 -1.126690
v 0.532208 2.000000 1.198236
v 1.047301 2.000000 1.198236
v 1.047301 2.000000 1.128749
v 0.532208 2.000000 1.128749
v -1.339252 0.030256 1.198236
v -1.339252 0.422553 1.198236
v -1.339252 0.422553 1.128749
v -1.339252 0.030256 1.128749
v 0.478787 1.980535 -1.196177
v -1.316088 0.472275 -1.196177
v -1.316088 0.472275 -1.126690
v 0.478787 1.980535 -1.126690
v 0.099174 1.557734 -1.073445
v 0.099174 1.557734 1.071454
v 0.099174 1.608723 1.071454
v 0.099174 1.608723 -1.073445
v -0.884602 0.725988 -1.073445
v -0.884602 0.725988 1.071454
v -0.884602 0.776977 1.071454
v -0.884602 0.776977 -1.073445
v -1.333853 0.351117 -1.073445
v -1.333853 0.351117 1.071454
v -1.333853 0.402107 1.071454
v -1.333853 0.402107 -1.073445
v -0.390378 1.146077 -1.073445
v -0.390378 1.146077 1.071454
v -0.390378 1.197067 1.071454
v -0.390378 1.197067 -1.073445
v 0.498318 1.906254 -1.073445
v 0.498318 1.906254 1.071454
v 0.498318 1.957243 1.071454
v 0.498318 1.957243 -1.073445
vt 0.375000 0.375000
vt 0.375000 0.375000
vt 0.375000 0.375000
vt 0.375000 0.375000
vt 0.375000 0.375000
vt 0.375000 0.375000
vt 0.375000 0.375000
vt 0.375000 0.375000
vt 0.375000 0.375000
vt 0.375000 0.375000
vt 0.375000 0.375000
vt 0.375000 0.375000
vt 0.375000 0.375000
vt 0.375000 0.375000
vt 0.375000 0.375000
vt 0.375000 0.375000
vt 0.375000 0.375000
vt 0.375000 0.375000
vt 0.375000 0.375000
vt 0.375000 0.375000
vt 0.375000 0.375000
vt 0.375000 0.375000
vt 0.375000 0.375000
vt 0.375000 0.375000
vt 0.375000 0.375000
vt 0.375000 0.375000
vt 0.375000 0.375000
vt 0.375000 0.375000
vt 0.375000 0.375000
vt 0.375000 0.375000
vt 0.375000 0.375000
vt 0.375000 0.375000
vt 0.375000 0.375000
vt 0.375000 0.375000
vt 0.375000 0.375000
vt 0.375000 0.375000
vt 0.375000 0.375000
vt 0.375000 0.375000
vt 0.375000 0.375000
vt 0.375000 0.375000
vt 0.375000 0.375000
vt 0.375000 0.375000
vt 0.375000 0.375000
vt 0.375000 0.375000
vt 0.875000 0.375000
vt 0.875000 0.375000
vt 0.875000 0.375000
vt 0.875000 0.375000
vt 0.875000 0.375000
vt 0.875000 0.375000
vt 0.875000 0.375000
vt 0.875000 0.375000
vt 0.875000 0.375000
vt 0.875000 0.375000
vt 0.875000 0.375000
vt 0.875000 0.375000
vt 0.875000 0.375000
vt 0.875000 0.375000
vt 0.875000 0.375000
vt 0.875000 0.375000
vt 0.875000 0.375000
vt 0.875000 0.375000
vt 0.875000 0.375000
vt 0.875000 0.375000
vt 0.875000 0.375000
vt 0.875000 0.375000
vt 0.875000 0.375000
vt 0.875000 0.375000
vt 0.875000 0.375000
vt 0.875000 0.375000
vt 0.875000 0.375000
vt 0.875000 0.375000
vt 0.875000 0.375000
vt 0.875000 0.375000
vt 0.875000 0.375000
vt 0.875000 0.375000
vt 0.875000 0.375000
vt 0.875000 0.375000
vt 0.875000 0.375000
vt 0.875000 0.375000
vt 0.875000 0.375000
vt 0.875000 0.375000
vt 0.875000 0.375000
vt 0.875000 0.375000
vt 0.875000 0.375000
vt 0.875000 0.375000
vt 0.875000 0.375000
vt 0.875000 0.375000
vt 0.875000 0.375000
vt 0.875000 0.375000
vt 0.875000 0.375000
vt 0.875000 0.375000
vt 0.875000 0.375000
vt 0.875000 0.375000
vt 0.875000 0.375000
vt 0.875000 0.375000
vt 0.875000 0.375000
vt 0.875000 0.375000
vt 0.875000 0.375000
vt 0.875000 0.375000
vt 0.875000 0.375000
vt 0.875000 0.375000
vt 0.875000 0.375000
vt 0.875000 0.375000
vt 0.875000 0.375000
vt 0.875000 0.375000
vt 0.875000 0.375000
vt 0.875000 0.375000
vt 0.875000 0.375000
vt 0.875000 0.375000
vt 0.875000 0.375000
vt 0.875000 0.375000
vt 0.875000 0.375000
vt 0.875000 0.375000
vt 0.875000 0.375000
vt 0.875000 0.375000
vt 0.875000 0.375000
vt 0.875000 0.375000
vt 0.875000 0.375000
vt 0.875000 0.375000
vt 0.875000 0.375000
vt 0.875000 0.375000
vt 0.875000 0.375000
vt 0.875000 0.375000
vt 0.875000 0.375000
vt 0.875000 0.375000
vt 0.875000 0.375000
vt 0.875000 0.375000
vt 0.875000 0.375000
vt 0.875000 0.375000
vt 0.875000 0.375000
vt 0.875000 0.375000
vt 0.875000 0.375000
vt 0.875000 0.375000
vt 0.875000 0.375000
vt 0.875000 0.375000
vt 0.875000 0.375000
vt 0.875000 0.375000
vt 0.875000 0.375000
vt 0.875000 0.375000
vt 0.875000 0.375000
vt 0.875000 0.375000
vt 0.875000 0.375000
vt 0.875000 0.375000
vt 0.875000 0.375000
vt 0.875000 0.375000
vt 0.875000 0.375000
vt 0.875000 0.375000
vt 0.875000 0.375000
vt 0.875000 0.375000
vt 0.875000 0.375000
vt 0.875000 0.375000
vn -0.6433 0.7656 0.0000
vn -1.0000 0.0000 0.0000
vn 0.0000 1.0000 0.0000
vn 0.0000 0.0000 -1.0000
vn 0.0000 0.0000 1.0000
vn 0.0000 -1.0000 0.0000
vn 1.0000 0.0000 0.0000
s off
f 65/1/1 66/2/1 67/3/1 68/4/1
f 69/5/2 70/6/2 71/7/2 72/8/2
f 73/9/3 74/10/3 75/11/3 76/12/3
f 77/13/3 78/14/3 79/15/3 80/16/3
f 81/17/2 82/18/2 83/19/2 84/20/2
f 85/21/1 86/22/1 87/23/1 88/24/1
f 89/25/2 90/26/2 91/27/2 92/28/2
f 93/29/2 94/30/2 95/31/2 96/32/2
f 97/33/2 98/34/2 99/35/2 100/36/2
f 101/37/2 102/38/2 103/39/2 104/40/2
f 105/41/2 106/42/2 107/43/2 108/44/2
f 10/45/4 4/46/4 8/47/4 11/48/4
f 12/49/5 6/50/5 2/51/5 9/52/5
f 5/53/5 12/49/5 9/52/5 1/54/5
f 3/55/4 10/45/4 11/48/4 7/56/4
f 14/57/6 13/58/6 15/59/6 16/60/6
f 22/61/6 21/62/6 23/63/6 24/64/6
f 26/65/6 25/66/6 27/67/6 28/68/6
f 17/69/6 19/70/6 20/71/6 18/72/6
f 30/73/6 29/74/6 31/75/6 32/76/6
f 42/77/5 43/78/5 40/79/5 36/80/5
f 44/81/4 41/82/4 34/83/4 38/84/4
f 37/85/4 33/86/4 41/82/4 44/81/4
f 35/87/5 39/88/5 43/78/5 42/77/5
f 46/89/3 48/90/3 47/91/3 45/92/3
f 54/93/3 56/94/3 55/95/3 53/96/3
f 58/97/3 60/98/3 59/99/3 57/100/3
f 50/101/3 52/102/3 51/103/3 49/104/3
f 62/105/3 64/106/3 63/107/3 61/108/3
f 3/55/6 7/56/6 39/88/6 35/87/6
f 7/56/7 11/48/7 43/78/7 39/88/7
f 12/49/7 5/53/7 37/85/7 44/81/7
f 5/53/6 1/54/6 33/86/6 37/85/6
f 11/48/7 8/47/7 40/79/7 43/78/7
f 6/50/7 12/49/7 44/81/7 38/84/7
f 14/57/7 16/60/7 48/90/7 46/89/7
f 22/61/7 24/64/7 56/94/7 54/93/7
f 26/65/7 28/68/7 60/98/7 58/97/7
f 18/72/7 20/71/7 52/102/7 50/101/7
f 30/73/7 32/76/7 64/106/7 62/105/7
f 9/52/1 2/51/1 66/109/1 65/110/1
f 2/51/1 34/83/1 67/111/1 66/109/1
f 34/83/1 41/82/1 68/112/1 67/111/1
f 41/82/1 9/52/1 65/110/1 68/112/1
f 10/45/2 3/55/2 70/113/2 69/114/2
f 3/55/2 35/87/2 71/115/2 70/113/2
f 35/87/2 42/77/2 72/116/2 71/115/2
f 42/77/2 10/45/2 69/114/2 72/116/2
f 8/47/3 4/46/3 74/117/3 73/118/3
f 4/46/3 36/80/3 75/119/3 74/117/3
f 36/80/3 40/79/3 76/120/3 75/119/3
f 40/79/3 8/47/3 73/118/3 76/120/3
f 2/51/3 6/50/3 78/121/3 77/122/3
f 6/50/3 38/84/3 79/123/3 78/121/3
f 38/84/3 34/83/3 80/124/3 79/123/3
f 34/83/3 2/51/3 77/122/3 80/124/3
f 1/54/2 9/52/2 82/125/2 81/126/2
f 9/52/2 41/82/2 83/127/2 82/125/2
f 41/82/2 33/86/2 84/128/2 83/127/2
f 33/86/2 1/54/2 81/126/2 84/128/2
f 4/46/1 10/45/1 86/129/1 85/130/1
f 10/45/1 42/77/1 87/131/1 86/129/1
f 42/77/1 36/80/1 88/132/1 87/131/1
f 36/80/1 4/46/1 85/130/1 88/132/1
f 15/59/2 13/58/2 90/133/2 89/134/2
f 13/58/2 45/92/2 91/135/2 90/133/2
f 45/92/2 47/91/2 92/136/2 91/135/2
f 47/91/2 15/59/2 89/134/2 92/136/2
f 23/63/2 21/62/2 94/137/2 93/138/2
f 21/62/2 53/96/2 95/139/2 94/137/2
f 53/96/2 55/95/2 96/140/2 95/139/2
f 55/95/2 23/63/2 93/138/2 96/140/2
f 27/67/2 25/66/2 98/141/2 97/142/2
f 25/66/2 57/100/2 99/143/2 98/141/2
f 57/100/2 59/99/2 100/144/2 99/143/2
f 59/99/2 27/67/2 97/142/2 100/144/2
f 19/70/2 17/69/2 102/145/2 101/146/2
f 17/69/2 49/104/2 103/147/2 102/145/2
f 49/104/2 51/103/2 104/148/2 103/147/2
f 51/103/2 19/70/2 101/146/2 104/148/2
f 31/75/2 29/74/2 106/149/2 105/150/2
f 29/74/2 61/108/2 107/151/2 106/149/2
f 61/108/2 63/107/2 108/152/2 107/151/2
f 63/107/2 31/75/2 105/150/2 108/152/2
